<?xml version="1.0" standalone="no"?>
<!DOCTYPE svg PUBLIC "-//W3C//DTD SVG 20010904//EN"
 "http://www.w3.org/TR/2001/REC-SVG-20010904/DTD/svg10.dtd">
<svg version="1.0" xmlns="http://www.w3.org/2000/svg"
 width="256.000000pt" height="256.000000pt" viewBox="0 0 256.000000 256.000000"
 preserveAspectRatio="xMidYMid meet">
<metadata>
Created by potrace 1.14, written by Peter Selinger 2001-2017
</metadata>
<g transform="translate(0.000000,256.000000) scale(0.100000,-0.100000)"
fill="#000000" stroke="none">
<path d="M244 2307 c-2 -7 -3 -56 -2 -108 l3 -94 44 0 45 0 -3 57 -2 57 63 3
63 3 0 45 0 45 -103 3 c-79 2 -104 0 -108 -11z"/>
<path d="M574 2306 c-3 -8 -4 -29 -2 -48 l3 -33 130 0 130 0 0 45 0 45 -128 3
c-103 2 -128 0 -133 -12z"/>
<path d="M954 2306 c-3 -8 -4 -29 -2 -48 l3 -33 130 0 130 0 0 45 0 45 -128 3
c-103 2 -128 0 -133 -12z"/>
<path d="M1334 2306 c-3 -8 -4 -29 -2 -48 l3 -33 133 -3 132 -3 0 51 0 50
-130 0 c-103 0 -132 -3 -136 -14z"/>
<path d="M1727 2314 c-4 -4 -7 -27 -7 -51 l0 -44 133 3 132 3 0 45 0 45 -126
3 c-69 1 -128 -1 -132 -4z"/>
<path d="M2104 2306 c-3 -8 -4 -29 -2 -48 3 -33 3 -33 60 -36 l57 -3 3 -57 3
-57 43 -3 43 -3 -3 108 -3 108 -98 3 c-77 2 -98 0 -103 -12z"/>
<path d="M245 1977 c-3 -7 -4 -67 -3 -133 l3 -119 43 0 43 0 0 130 0 130 -40
3 c-28 2 -43 -1 -46 -11z"/>
<path d="M2224 1977 c-2 -7 -3 -67 -2 -133 l3 -119 43 -3 42 -3 0 135 0 136
-40 0 c-24 0 -43 -5 -46 -13z"/>
<path d="M940 1325 l0 -575 85 0 85 0 0 240 0 240 258 2 257 3 3 67 3 68 -258
2 -258 3 -3 188 -2 187 280 0 280 0 0 75 0 75 -365 0 -365 0 0 -575z"/>
<path d="M242 1473 l3 -128 43 -3 42 -3 0 130 0 131 -45 0 -46 0 3 -127z"/>
<path d="M2220 1470 l0 -130 45 0 45 0 0 130 0 130 -45 0 -45 0 0 -130z"/>
<path d="M247 1213 c-4 -3 -7 -62 -7 -130 l0 -123 45 0 45 0 0 130 0 130 -38
0 c-21 0 -42 -3 -45 -7z"/>
<path d="M2220 1090 l0 -130 45 0 45 0 0 130 0 130 -45 0 -45 0 0 -130z"/>
<path d="M245 827 c-3 -7 -4 -67 -3 -133 l3 -119 43 0 43 0 0 130 0 130 -40 3
c-28 2 -43 -1 -46 -11z"/>
<path d="M2224 827 c-2 -7 -3 -67 -2 -133 l3 -119 43 -3 42 -3 0 135 0 136
-40 0 c-24 0 -43 -5 -46 -13z"/>
<path d="M247 454 c-4 -4 -7 -52 -7 -106 l0 -98 111 0 110 0 -3 43 -3 42 -63
3 -63 3 2 57 3 57 -40 3 c-22 2 -43 0 -47 -4z"/>
<path d="M2227 453 c-4 -3 -7 -30 -7 -59 l0 -53 -57 -3 -58 -3 -3 -42 -3 -43
105 0 106 0 0 105 0 105 -38 0 c-21 0 -42 -3 -45 -7z"/>
<path d="M577 334 c-4 -4 -7 -25 -7 -46 l0 -38 136 0 135 0 -3 43 -3 42 -126
3 c-69 1 -128 -1 -132 -4z"/>
<path d="M957 334 c-4 -4 -7 -25 -7 -46 l0 -38 136 0 135 0 -3 43 -3 42 -126
3 c-69 1 -128 -1 -132 -4z"/>
<path d="M1337 333 c-4 -3 -7 -24 -7 -45 l0 -38 135 0 135 0 0 45 0 45 -128 0
c-71 0 -132 -3 -135 -7z"/>
<path d="M1720 295 l0 -45 136 0 135 0 -3 43 -3 42 -132 3 -133 3 0 -46z"/>
</g>
</svg>
